<svg xmlns="http://www.w3.org/2000/svg" id="b" viewBox="0 0 942.78 325.29">
   <g id="c">
      <g>
         <circle cx="127.55" cy="108.97" r="42.67" style="fill:#fff;" />
         <path d="M2.14,279.36c8.85,32.89,43.14,52.67,76.03,43.81,25.56-6.89,42.97-28.69,45.58-53.39,1.14-10.77,8.67-19.8,18.94-23.23l16.37-5.47c9.56-3.19,19.97-.75,27.43,6.03,14.91,13.56,37.32,17.1,56.25,7.06,22.82-12.1,32.47-40.28,21.81-63.81-2.25-4.96-5.2-9.35-8.67-13.12-10.7-11.6-14.93-27.77-12.03-43.28l3.61-19.28c2.64-14.09,11.25-26.26,23.48-33.75,9.95-6.1,17.17-16.54,18.65-29.22,2.35-20.08-11.17-38.96-30.93-43.23-22.08-4.77-43.51,9.77-47.4,31.82-2.03,11.51,1.14,22.74,7.82,31.28,8.72,11.15,11.96,25.63,9.36,39.54l-3.69,19.71c-2.92,15.57-13.11,28.67-27.26,35.8-.07,.04-.14,.07-.21,.11-14.21,7.24-23.4,20.43-26.09,34.98-1.83,9.89-9.06,17.92-18.6,21.11l-16.03,5.35c-10.39,3.47-21.82,.53-29.33-7.44-15.41-16.35-39.19-23.73-62.28-17.11C12.35,212.98-6.63,246.73,2.14,279.36Z" style="fill:#3479b0;" />
         <g>
            <path d="M473.14,224.51h-37l-16.91-33.05-40.3-79.17-40.3,79.17-16.91,33.05h-37l16.8-33.05L378.93,39.61l77.41,151.85,16.8,33.05Z" style="fill:#fff;" />
            <path d="M572.08,224.5l-38.69-46.19-7.74,7.97v38.22h-28.14V63.66h28.14v86.75l39.39-42.91h37.28l-50.88,52.05,56.27,64.95h-35.64Z" style="fill:#fff;" />
            <path d="M718.62,193.08v22.74c-10.79,5.86-25.32,10.55-44.08,10.55-23.21,0-54.4-9.38-54.4-59.09,0-34.93,14.07-61.9,52.29-61.9s52.29,27.43,52.29,56.74c0,5.16,0,9.85-.47,14.54h-75.26c1.64,22.51,16.18,25.56,29.78,25.56,16.65,0,30.01-4.46,39.86-9.14Zm-69.64-35.87h47.13c-1.41-14.77-8.67-28.84-23.68-28.84-13.83,0-21.81,7.97-23.45,28.84Z" style="fill:#fff;" />
            <path d="M810.53,105.63v24.38c-15.71,.23-26.26,2.81-30.25,3.99v90.5h-28.14V118.06s24.85-11.72,58.38-12.43Z" style="fill:#fff;" />
            <path d="M928.24,155.34v31.65c0,18.99-12.9,39.39-49.24,39.39s-50.18-20.63-50.18-40.09c0-8.68,3.52-36.81,50.41-36.81,7.27,0,14.3,.7,20.63,1.64,0-12.66-6.57-22.04-24.85-22.04-14.07,0-25.56,2.34-34.23,5.86v-22.74c9.85-3.99,21.81-6.57,35.87-6.57,33.29,0,51.58,17.59,51.58,49.71Zm-28.14,13.6c-4.92-.7-10.55-1.41-16.88-1.41-18.99,0-26.5,5.63-26.5,15.24,0,12.19,7.27,18.76,22.04,18.76,15.71,0,21.34-7.03,21.34-17.82v-14.77Z" style="fill:#fff;" />
         </g>
      </g>
   </g>
</svg>