<svg width="452.131" height="74.859" viewBox="0 0 452.131 74.859" xmlns="http://www.w3.org/2000/svg"><g id="svgGroup" stroke-linecap="round" fill-rule="evenodd" font-size="9pt" stroke="#ffffff" stroke-width=".1mm" fill="#ffffff" style="stroke:#ffffff;stroke-width:.1mm;fill:#ffffff"><path d="M 452.131 23.722 L 449.716 23.722 Q 449.041 20.1 447.088 16.336 A 27.444 27.444 0 0 0 442.547 10.03 A 31.182 31.182 0 0 0 441.903 9.375 Q 438.672 6.179 434.268 4.226 A 22.582 22.582 0 0 0 427.984 2.504 A 28.692 28.692 0 0 0 424.29 2.273 A 25.058 25.058 0 0 0 410.494 6.339 Q 404.155 10.405 400.302 18.235 Q 396.81 25.332 396.483 35.271 A 63.408 63.408 0 0 0 396.449 37.358 Q 396.449 47.037 399.21 54.121 A 31.351 31.351 0 0 0 400.302 56.605 Q 404.155 64.418 410.494 68.431 A 25.3 25.3 0 0 0 424.29 72.444 A 27.508 27.508 0 0 0 429.844 71.905 A 21.974 21.974 0 0 0 434.268 70.508 A 25.524 25.524 0 0 0 441.077 66.17 A 24.046 24.046 0 0 0 441.903 65.395 A 27.668 27.668 0 0 0 446.547 59.428 A 25.729 25.729 0 0 0 447.088 58.434 A 29.281 29.281 0 0 0 448.938 54.045 A 23.945 23.945 0 0 0 449.716 50.995 L 452.131 50.995 Q 451.456 54.83 449.432 58.967 A 29.964 29.964 0 0 1 444.904 65.671 A 34.338 34.338 0 0 1 443.963 66.691 A 26.201 26.201 0 0 1 436.967 71.846 A 30.458 30.458 0 0 1 435.618 72.497 A 24.415 24.415 0 0 1 429.26 74.35 A 32.388 32.388 0 0 1 424.29 74.716 A 28.884 28.884 0 0 1 414.923 73.238 A 25.727 25.727 0 0 1 408.558 70.029 Q 401.776 65.341 397.976 56.925 A 41.856 41.856 0 0 1 394.852 46.28 A 56.343 56.343 0 0 1 394.176 37.358 A 55.459 55.459 0 0 1 395.011 27.505 A 41.367 41.367 0 0 1 397.976 17.792 Q 401.776 9.375 408.558 4.688 A 26.519 26.519 0 0 1 422.341 0.057 A 32.866 32.866 0 0 1 424.29 0 A 31.988 31.988 0 0 1 429.98 0.484 A 24.203 24.203 0 0 1 435.618 2.202 A 27.524 27.524 0 0 1 441.91 6.073 A 24.834 24.834 0 0 1 443.963 7.973 A 30.931 30.931 0 0 1 448.478 13.896 A 28.098 28.098 0 0 1 449.432 15.679 A 33.153 33.153 0 0 1 451.28 20.252 A 26.464 26.464 0 0 1 452.131 23.722 Z M 156.108 44.176 L 156.108 46.449 L 112.358 46.449 L 112.358 44.176 L 153.835 44.176 A 27.606 27.606 0 0 0 152.794 36.488 A 24.3 24.3 0 0 0 151.136 32.262 A 23.488 23.488 0 0 0 146.829 26.219 A 21.287 21.287 0 0 0 143.892 23.757 A 17.271 17.271 0 0 0 133.807 20.597 Q 128.196 20.597 123.651 23.935 A 22.416 22.416 0 0 0 117.876 30.26 A 28.03 28.03 0 0 0 116.371 33.026 A 29.58 29.58 0 0 0 113.807 41.853 A 36.809 36.809 0 0 0 113.494 46.023 L 113.494 46.307 A 35.504 35.504 0 0 0 114.547 55.079 A 31.085 31.085 0 0 0 115.998 59.429 A 23.734 23.734 0 0 0 119.961 65.902 A 21.38 21.38 0 0 0 123.295 68.999 A 17.864 17.864 0 0 0 131.645 72.361 A 23.535 23.535 0 0 0 134.943 72.586 Q 139.986 72.586 143.413 70.81 Q 146.839 69.034 148.917 66.726 A 45.029 45.029 0 0 0 150.11 65.349 Q 151.267 63.954 151.944 62.857 A 12.991 12.991 0 0 0 151.989 62.784 L 153.835 64.063 A 17.811 17.811 0 0 1 152.76 65.672 Q 152.144 66.501 151.361 67.393 A 38.732 38.732 0 0 1 150.213 68.644 A 19.203 19.203 0 0 1 147.069 71.267 A 25.482 25.482 0 0 1 144.034 73.012 Q 140.498 74.746 135.582 74.852 A 29.926 29.926 0 0 1 134.943 74.858 A 23.08 23.08 0 0 1 127.865 73.806 A 20.118 20.118 0 0 1 122.461 71.13 A 24.217 24.217 0 0 1 114.842 62.375 A 29.152 29.152 0 0 1 114.169 61.009 Q 111.222 54.617 111.222 46.591 A 37.313 37.313 0 0 1 112.108 38.302 A 30.68 30.68 0 0 1 114.187 32.174 A 27.639 27.639 0 0 1 118.202 25.825 A 23.605 23.605 0 0 1 122.266 22.053 A 19.105 19.105 0 0 1 133.807 18.324 A 19.526 19.526 0 0 1 142.631 20.348 A 22.009 22.009 0 0 1 149.716 25.959 A 26.785 26.785 0 0 1 154.311 33.916 A 30.264 30.264 0 0 1 154.421 34.216 Q 156.108 38.885 156.108 44.176 Z M 27.415 3.836 L 2.415 73.722 L 0 73.722 L 25.994 0.995 L 29.119 0.995 L 55.114 73.722 L 52.699 73.722 L 27.699 3.836 L 27.415 3.836 Z M 236.932 37.784 L 236.932 34.517 A 15.134 15.134 0 0 0 236.234 29.818 A 12.299 12.299 0 0 0 232.706 24.414 A 14.354 14.354 0 0 0 226.14 21.09 A 21.108 21.108 0 0 0 221.449 20.597 Q 215.696 20.597 211.399 23.136 A 13.558 13.558 0 0 0 205.398 30.256 L 203.267 29.404 A 15.314 15.314 0 0 1 207.209 23.509 A 18.355 18.355 0 0 1 212.853 19.937 A 21.149 21.149 0 0 1 213.53 19.674 A 22.112 22.112 0 0 1 219.872 18.372 A 25.896 25.896 0 0 1 221.449 18.324 A 24.226 24.226 0 0 1 225.386 18.63 A 18.689 18.689 0 0 1 228.888 19.549 A 17.313 17.313 0 0 1 232.613 21.455 A 15.067 15.067 0 0 1 234.482 22.958 Q 236.79 25.142 237.997 28.09 Q 239.205 31.037 239.205 34.517 L 239.205 73.722 L 236.932 73.722 L 236.932 62.642 L 236.648 62.642 A 22.513 22.513 0 0 1 232.227 69.088 Q 229.51 71.84 225.977 73.349 Q 222.443 74.858 218.324 74.858 A 18.927 18.927 0 0 1 211.755 73.731 A 17.864 17.864 0 0 1 210.067 73.012 A 14.856 14.856 0 0 1 203.995 67.614 A 14.034 14.034 0 0 1 202.03 62.582 A 19.371 19.371 0 0 1 201.705 58.949 A 15.335 15.335 0 0 1 202.291 54.671 A 14.17 14.17 0 0 1 202.592 53.747 A 10.207 10.207 0 0 1 204.451 50.612 A 13.117 13.117 0 0 1 205.717 49.326 Q 207.456 47.78 210.279 46.577 A 28.662 28.662 0 0 1 211.985 45.917 Q 214.914 44.884 219.032 44.209 A 74.216 74.216 0 0 1 222.301 43.75 Q 226.065 43.324 229.403 42.756 A 24.665 24.665 0 0 0 231.721 42.253 Q 233.523 41.764 234.837 41.051 Q 236.932 39.915 236.932 37.784 Z M 327.273 73.722 L 288.636 73.722 L 288.636 0.995 L 290.909 0.995 L 290.909 71.449 L 327.273 71.449 L 327.273 73.722 Z M 383.523 73.722 L 344.886 73.722 L 344.886 0.995 L 347.159 0.995 L 347.159 71.449 L 383.523 71.449 L 383.523 73.722 Z M 174.432 73.722 L 172.159 73.722 L 172.159 19.176 L 174.432 19.176 L 174.432 27.841 L 174.716 27.841 A 14.617 14.617 0 0 1 180.073 21.613 A 18.224 18.224 0 0 1 181.019 21.023 A 18.859 18.859 0 0 1 188.809 18.572 A 23.368 23.368 0 0 1 191.051 18.466 L 191.619 18.466 L 192.188 18.466 L 192.188 20.739 L 191.619 20.739 L 191.051 20.739 A 19.004 19.004 0 0 0 186.225 21.33 A 15.888 15.888 0 0 0 182.475 22.834 A 15.384 15.384 0 0 0 176.58 28.622 A 15.87 15.87 0 0 0 174.535 35.043 A 19.654 19.654 0 0 0 174.432 37.074 L 174.432 73.722 Z M 70.313 73.722 L 68.04 73.722 L 68.04 0.995 L 70.313 0.995 L 70.313 73.722 Z M 236.932 50.426 L 236.932 42.188 A 9.255 9.255 0 0 1 235.76 42.93 A 12.473 12.473 0 0 1 234.535 43.502 A 21.18 21.18 0 0 1 233.043 44.039 A 27.78 27.78 0 0 1 231.374 44.514 A 38.628 38.628 0 0 1 229.074 45.017 A 47.58 47.58 0 0 1 227.557 45.277 A 121.764 121.764 0 0 1 225.426 45.588 A 146.772 146.772 0 0 1 223.153 45.881 A 71.636 71.636 0 0 0 218.886 46.5 Q 214.676 47.251 211.844 48.393 A 20.801 20.801 0 0 0 211.648 48.473 A 18.986 18.986 0 0 0 209.162 49.711 Q 207.9 50.468 206.978 51.348 A 8.746 8.746 0 0 0 205.717 52.841 A 10.488 10.488 0 0 0 204.029 57.778 A 13.103 13.103 0 0 0 203.977 58.949 Q 203.977 65.128 208.114 68.857 A 14.397 14.397 0 0 0 217.019 72.541 A 18.8 18.8 0 0 0 218.324 72.586 A 16.721 16.721 0 0 0 227.734 69.798 A 18.935 18.935 0 0 0 233.54 63.671 A 23.209 23.209 0 0 0 234.446 62.021 A 23.333 23.333 0 0 0 236.582 55.153 A 30.772 30.772 0 0 0 236.932 50.426 Z M 77.699 43.892 L 69.744 51.705 L 69.744 47.586 L 70.597 47.586 L 99.574 19.176 L 102.841 19.176 L 77.983 43.608 L 77.699 43.892 Z M 103.693 73.722 L 100.71 73.722 L 76.847 43.608 L 78.551 42.188 L 103.693 73.722 Z M 10.653 49.148 L 10.653 46.875 L 44.46 46.875 L 44.46 49.148 L 10.653 49.148 Z" vector-effect="non-scaling-stroke"/></g></svg>