<svg id="b" xmlns="http://www.w3.org/2000/svg" viewBox="0 0 765.75 523.21"><g id="c"><g><circle cx="205.18" cy="175.22" r="68.65" style="fill:#f2f2f2;"/><path d="M3.44,449.32c14.23,52.91,69.39,84.73,122.3,70.48,41.12-11.08,69.12-46.15,73.32-85.9,1.83-17.33,13.94-31.85,30.47-37.37l26.34-8.8c15.37-5.13,32.13-1.2,44.13,9.7,23.99,21.81,60.04,27.51,90.49,11.36,36.71-19.46,52.23-64.8,35.09-102.65-3.61-7.98-8.36-15.04-13.95-21.11-17.21-18.66-24.02-44.67-19.35-69.62l5.81-31.02c4.24-22.67,18.1-42.24,37.77-54.29,16.01-9.81,27.62-26.6,30.01-47.01,3.78-32.31-17.96-62.67-49.76-69.54-35.53-7.68-70,15.72-76.25,51.19-3.27,18.52,1.83,36.59,12.57,50.32,14.03,17.93,19.24,41.23,15.05,63.61l-5.94,31.71c-4.69,25.05-21.09,46.13-43.85,57.59-.11,.06-.22,.11-.34,.17-22.86,11.65-37.64,32.86-41.97,56.28-2.94,15.91-14.58,28.83-29.93,33.96l-25.78,8.61c-16.71,5.58-35.09,.86-47.18-11.97-24.79-26.3-63.05-38.17-100.18-27.52C19.87,342.54-10.67,396.84,3.44,449.32Z" style="fill:#3479b0;"/><path d="M761.23,361.17h-59.52l-27.2-53.17-64.83-127.35-64.83,127.35-27.2,53.17h-59.52l27.02-53.17,124.53-244.29,124.53,244.29,27.02,53.17Z" style="fill:#f2f2f2;"/></g></g></svg>